<svg width="54" height="63" viewBox="0 0 54 63" fill="none" xmlns="http://www.w3.org/2000/svg">
<path d="M31.3825 0C29.8304 7.23583e-05 14.7929 9.62121 6.1096 15.2622C4.40303 16.3708 5.26452 19.0457 7.29872 18.9864C12.5756 18.8325 20.0529 18.6961 27.4677 18.8383C29.0944 18.8695 30.4455 20.2 30.56 21.823C30.9116 26.8089 31.6418 36.2646 31.0391 38.5736C30.9523 38.9061 30.6677 39.1079 30.3374 39.2028C25.3757 40.6285 6.89621 38.7653 6.79002 40.2481C6.23765 47.961 6.44724 55.0769 6.63009 58.7453C6.70448 60.2377 7.89637 61.4114 9.3895 61.469C11.5844 61.5536 14.4723 61.6073 15.1331 61.3435C16.2311 60.9053 12.7177 54.2765 15.1331 48.1416C17.5486 42.0067 22.5991 45.2932 23.697 49.2371C24.7949 53.181 23.697 61.1244 24.3558 61.3435C24.6666 61.4469 34.0176 60.6401 38.1897 61.43C41.0476 61.9711 47.4089 61.7303 51.1328 61.5249C52.7372 61.4365 53.9599 60.089 53.9125 58.4828C53.7018 51.3527 53.2093 33.0376 53.5608 28.478C53.7155 26.4718 53.8157 24.5199 53.8806 22.8328C54.0096 19.4789 52.4694 16.3079 49.8404 14.2214C47.99 12.7528 45.6793 10.919 43.2402 8.98338C38.6321 5.32655 33.5784 -0.000102365 31.3825 0Z" fill="#FDF2D5"/>
<path d="M18.9886 20.6267C19.0174 20.4291 19.3076 20.4291 19.3364 20.6267L19.351 25.5586C19.3728 25.709 19.5675 25.7603 19.663 25.6408L22.9697 21.7218C23.0951 21.5649 23.3465 21.7075 23.2708 21.8926L21.7331 25.8259C21.6755 25.9669 21.818 26.1069 21.9615 26.0503L26.3163 24.8847C26.5047 24.8103 26.6499 25.0573 26.4901 25.1805L22.5012 28.2566C22.3796 28.3504 22.4317 28.5417 22.5848 28.5632L27.6048 28.9226C27.8059 28.9508 27.8059 29.236 27.6048 29.2642L22.5848 30.1413C22.4317 30.1628 22.3796 30.3541 22.5012 30.4478L26.4901 33.524C26.6499 33.6472 26.5047 33.8942 26.3163 33.8198L21.6102 32.1365C21.4667 32.0799 21.3242 32.2199 21.3818 32.3609L23.7977 36.9844C23.8733 37.1696 23.6219 37.3122 23.4965 37.1552L19.8386 32.9757C19.8386 32.7152 19.5485 32.9075 19.5266 33.0579L18.4582 38.2504C18.4295 38.4479 18.1392 38.4479 18.1105 38.2504L17.4326 33.8198C17.4108 33.6695 17.2161 33.6182 17.1206 33.7377L13.7747 37.5003C13.6493 37.6573 13.3979 37.5147 13.4736 37.3295L15.8895 32.3609C15.947 32.2199 15.8045 32.0799 15.661 32.1365L10.955 33.6473C10.7665 33.7216 10.6214 33.4746 10.7811 33.3514L14.4188 30.4478C14.5404 30.3541 14.4883 30.1628 14.3352 30.1413L9.66642 29.4368C9.46536 29.4086 9.46536 29.1234 9.66641 29.0952L14.6865 28.5632C14.8395 28.5417 14.8917 28.3504 14.7701 28.2566L10.7811 24.8354C10.6214 24.7122 10.7665 24.4652 10.955 24.5396L15.661 26.7405C15.8045 26.7971 15.947 26.6571 15.8895 26.5161L13.6492 21.8926C13.5735 21.7075 13.8249 21.5649 13.9503 21.7218L17.4326 25.6408C17.5281 25.7603 17.7228 25.709 17.7447 25.5586L18.9886 20.6267Z" fill="#F2911B"/>
<path fill-rule="evenodd" clip-rule="evenodd" d="M42.6611 26.6627C43.0448 26.6801 43.3416 27.0053 43.3241 27.3889L42.6295 27.3573C43.3241 27.3889 43.3241 27.3889 43.3241 27.3889L43.3187 27.509C43.3152 27.588 43.31 27.7049 43.3034 27.8561C43.2901 28.1586 43.2711 28.5984 43.2482 29.1474C43.2024 30.2455 43.141 31.7804 43.0783 33.5273C42.9528 37.023 42.8228 41.3603 42.8033 44.7452C42.7842 48.0626 42.8709 52.3123 42.9625 55.7376C43.0084 57.4492 43.0554 58.953 43.0909 60.0288C43.1087 60.5667 43.1236 60.9976 43.1341 61.2939C43.1393 61.4421 43.1434 61.5566 43.1462 61.634L43.1505 61.7514C43.1505 61.7515 43.1505 61.7515 42.4556 61.7774C41.7608 61.8032 41.7608 61.8032 41.7608 61.8031L41.7564 61.6844C41.7536 61.6066 41.7495 61.4916 41.7442 61.343C41.7337 61.0457 41.7188 60.6138 41.701 60.0748C41.6653 58.9967 41.6182 57.4899 41.5723 55.7748C41.4806 52.3467 41.3934 48.0783 41.4126 44.7372C41.4322 41.3303 41.5629 36.9757 41.6885 33.4774C41.7513 31.7273 41.8129 30.1896 41.8587 29.0895C41.8817 28.5394 41.9007 28.0986 41.914 27.7953C41.9206 27.6436 41.9258 27.5263 41.9294 27.4469L41.9348 27.3258C41.9348 27.3257 41.9348 27.3257 42.626 27.3571L41.9348 27.3258C41.9523 26.9422 42.2775 26.6452 42.6611 26.6627ZM42.4815 62.4722C42.0977 62.4865 41.775 62.1868 41.7608 61.8031L42.4556 61.7774L43.1505 61.7514C43.1648 62.1352 42.8653 62.458 42.4815 62.4722Z" fill="#025940"/>
<path fill-rule="evenodd" clip-rule="evenodd" d="M47.6794 26.3177C48.827 27.4074 49.3413 29.1634 49.4942 30.3863C49.5418 30.7674 49.2715 31.1149 48.8905 31.1625C48.5094 31.2102 48.1619 30.9399 48.1142 30.5588C47.9774 29.4638 47.5269 28.0907 46.7217 27.3262C46.3404 26.964 45.8892 26.7456 45.3326 26.7349C44.7608 26.7239 43.9996 26.9311 43.0142 27.5772C42.6931 27.7878 42.262 27.6982 42.0514 27.3771C41.8409 27.0559 41.9305 26.6249 42.2516 26.4143C43.3871 25.6697 44.4215 25.3264 45.3592 25.3444C46.3122 25.3627 47.0843 25.7527 47.6794 26.3177Z" fill="#025940"/>
<path fill-rule="evenodd" clip-rule="evenodd" d="M50.5648 24.6106C51.1489 25.3202 51.5734 26.1589 51.6673 26.9097C51.7149 27.2908 51.4446 27.6383 51.0635 27.686C50.6824 27.7336 50.3349 27.4633 50.2873 27.0822C50.2363 26.6742 49.969 26.0751 49.4911 25.4945C49.0203 24.9226 48.4038 24.441 47.7382 24.2083C47.0922 23.9824 46.3891 23.984 45.6601 24.3832C44.9102 24.7938 44.0669 25.6622 43.2565 27.3037C43.0865 27.648 42.6695 27.7893 42.3252 27.6193C41.9808 27.4493 41.8395 27.0323 42.0095 26.688C42.894 24.8964 43.905 23.7586 44.9922 23.1633C46.1003 22.5566 47.2171 22.5528 48.1972 22.8955C49.1577 23.2314 49.9735 23.8923 50.5648 24.6106Z" fill="#025940"/>
<path fill-rule="evenodd" clip-rule="evenodd" d="M37.5785 26.6478C36.4308 27.7375 35.9165 29.4935 35.7636 30.7164C35.716 31.0974 35.9863 31.445 36.3674 31.4926C36.7484 31.5402 37.096 31.2699 37.1436 30.8889C37.2805 29.7939 37.7309 28.4208 38.5361 27.6562C38.9175 27.2941 39.3687 27.0756 39.9253 27.065C40.497 27.054 41.2582 27.2612 42.2436 27.9073C42.5647 28.1179 42.9958 28.0283 43.2064 27.7071C43.417 27.386 43.3273 26.9549 43.0062 26.7444C41.8707 25.9998 40.8363 25.6565 39.8986 25.6745C38.9457 25.6928 38.1735 26.0828 37.5785 26.6478Z" fill="#025940"/>
<path fill-rule="evenodd" clip-rule="evenodd" d="M34.693 24.9407C34.1089 25.6503 33.6844 26.4889 33.5906 27.2398C33.5429 27.6209 33.8132 27.9684 34.1943 28.016C34.5754 28.0637 34.9229 27.7934 34.9705 27.4123C35.0215 27.0043 35.2888 26.4052 35.7667 25.8246C36.2375 25.2527 36.854 24.7711 37.5196 24.5384C38.1656 24.3125 38.8687 24.3141 39.5977 24.7132C40.3476 25.1238 41.1909 25.9923 42.0013 27.6337C42.1713 27.9781 42.5883 28.1194 42.9326 27.9494C43.277 27.7794 43.4183 27.3624 43.2483 27.0181C42.3638 25.2265 41.3528 24.0887 40.2656 23.4934C39.1575 22.8867 38.0407 22.8829 37.0606 23.2256C36.1001 23.5614 35.2843 24.2224 34.693 24.9407Z" fill="#025940"/>
</svg>
